<?xml version="1.0" encoding="UTF-8"?>
<svg id="_圖層_2" data-name="圖層 2" xmlns="http://www.w3.org/2000/svg" viewBox="0 0 135.1 22.47">
  <defs>
    <style>
      .cls-1 {
        fill: #eeeeef;
      }
    </style>
  </defs>
  <g id="_首頁" data-name="首頁">
    <g>
      <path class="cls-1" d="M20.11,.25V5.37h-2.42V2.68l-.76-.69H7.67V10.08h6.39l.57-.47v-1.31h2.42v5.34h-2.42v-1.31l-.57-.5H7.67v8.52h9.9l.76-.62v-3.06h2.42v5.43H0v-1.75H3.44V2H0V.25H20.11Z"/>
      <path class="cls-1" d="M44.6,.25h9.3V2h-3.44V22.47h-2.46L32.62,5.34l-1.66-2.4h-.15l.38,2.44v14.98h3.44v1.75h-9.3v-1.75h3.44V2h-3.44V.25h7.56l13.23,14.7,1.97,2.68h.19l-.23-2.68V2h-3.44V.25Z"/>
      <path class="cls-1" d="M75.26,22.1h-12.02v-1.75h3.89V2h-6.77l-.76,.69V6.71h-2.72V.25h24.72V6.71h-2.72V2.68l-.76-.69h-6.77V20.35h3.89v1.75Z"/>
      <path class="cls-1" d="M104.71,.25V5.37h-2.42V2.68l-.76-.69h-9.26V10.08h6.39l.57-.47v-1.31h2.42v5.34h-2.42v-1.31l-.57-.5h-6.39v8.52h9.9l.76-.62v-3.06h2.42v5.43h-20.75v-1.75h3.44V2h-3.44V.25h20.11Z"/>
      <path class="cls-1" d="M117.6,20.35h3.29v1.75h-10.96v-1.75h3.44V2h-3.44V.25h3.82c1.13,0,2.37-.04,3.71-.12,1.33-.08,2.65-.12,3.93-.12,1.39,0,2.69,.12,3.91,.36,1.22,.24,2.27,.61,3.16,1.11,.88,.5,1.58,1.14,2.1,1.92s.78,1.71,.78,2.8c0,1.5-.56,2.78-1.68,3.83-1.12,1.05-2.59,1.8-4.4,2.23l7.52,8.1h2.34v1.75h-6.12l-7.52-9.43h-3.86v7.68Zm2.99-9.24c1.94,0,3.46-.44,4.56-1.32,1.1-.88,1.64-2.07,1.64-3.58s-.58-2.68-1.74-3.39c-1.16-.71-2.7-1.07-4.61-1.07-.66,0-1.2,.02-1.64,.06-.44,.04-.84,.08-1.19,.13V11.11h2.99Z"/>
    </g>
  </g>
</svg>