<?xml version="1.0" encoding="UTF-8"?>
<svg id="_圖層_2" data-name="圖層 2" xmlns="http://www.w3.org/2000/svg" xmlns:xlink="http://www.w3.org/1999/xlink" viewBox="0 0 337.25 53.55">
  <defs>
    <style>
      .cls-1 {
        fill: #fff;
      }

      .cls-2 {
        clip-path: url(#clippath-1);
      }

      .cls-3 {
        stroke-width: .63px;
      }

      .cls-3, .cls-4 {
        stroke: #fff;
        stroke-miterlimit: 10;
      }

      .cls-3, .cls-4, .cls-5 {
        fill: none;
      }

      .cls-4 {
        stroke-width: .39px;
      }

      .cls-6 {
        clip-path: url(#clippath);
      }

      .cls-7 {
        fill: #8d1e23;
      }
    </style>
    <clipPath id="clippath">
      <rect class="cls-5" x="0" y="0" width="337.25" height="53.55"/>
    </clipPath>
    <clipPath id="clippath-1">
      <rect class="cls-5" x="0" y="0" width="337.25" height="53.55"/>
    </clipPath>
  </defs>
  <g id="_首頁" data-name="首頁">
    <g id="_圖稿_72" data-name="圖稿 72">
      <g class="cls-6">
        <g class="cls-2">
          <path class="cls-1" d="M153.73,47.24c-.32,0-.68-.08-1.08-.23-.4-.15-.72-.39-.96-.71l-3.16-3.93h-4.26l4.91,6.44c.23,.31,.5,.59,.8,.84,.3,.25,.63,.48,.98,.67,.72,.39,1.42,.58,2.08,.58h4.07v-3.66h-3.38Z"/>
          <path class="cls-4" d="M153.73,47.24c-.32,0-.68-.08-1.08-.23-.4-.15-.72-.39-.96-.71l-3.16-3.93h-4.26l4.91,6.44c.23,.31,.5,.59,.8,.84,.3,.25,.63,.48,.98,.67,.72,.39,1.42,.58,2.08,.58h4.07v-3.66h-3.38Z"/>
          <path class="cls-1" d="M124.28,46.02c-.26,.34-.62,.63-1.08,.87-.46,.23-.93,.35-1.39,.35h-2.64v3.66h3.68c.72,0,1.41-.18,2.04-.52,.75-.39,1.34-.86,1.74-1.39l4.95-6.62h-4.48l-2.82,3.66Z"/>
          <path class="cls-4" d="M124.28,46.02c-.26,.34-.62,.63-1.08,.87-.46,.23-.93,.35-1.39,.35h-2.64v3.66h3.68c.72,0,1.41-.18,2.04-.52,.75-.39,1.34-.86,1.74-1.39l4.95-6.62h-4.48l-2.82,3.66Z"/>
          <path class="cls-1" d="M156.93,36.57h-17.13v-4.05h15.09v-3.66h-15.09v-3.82h15.78v-3.66h-7.56l2.72-5.15h6.1v-3.72h-12.01V2.12h-3.46V12.5h-6.91V2.12h-3.37V12.5h-12.05v3.72h6.19l2.89,5.15h-8v3.66h16.26v3.82h-15.09v3.66h15.09v4.05h-17.39v3.66h17.39v12.17h3.41v-12.17h17.13v-3.66Zm-10.2-20.34l-2.63,5.15h-12.01l-2.89-5.15h17.52Z"/>
          <path class="cls-4" d="M156.93,36.57h-17.13v-4.05h15.09v-3.66h-15.09v-3.82h15.78v-3.66h-7.56l2.72-5.15h6.1v-3.72h-12.01V2.12h-3.46V12.5h-6.91V2.12h-3.37V12.5h-12.05v3.72h6.19l2.89,5.15h-8v3.66h16.26v3.82h-15.09v3.66h15.09v4.05h-17.39v3.66h17.39v12.17h3.41v-12.17h17.13v-3.66Zm-10.2-20.34l-2.63,5.15h-12.01l-2.89-5.15h17.52Z"/>
          <path class="cls-1" d="M152.13,9.55c.37-.27,.72-.58,1.02-.93,.3-.34,.57-.75,.8-1.22l1.89-3.9h-3.8l-1.17,2.14c-.18,.32-.47,.59-.9,.82-.41,.23-.83,.35-1.23,.35h-2.12v3.61h2.72c1.04,0,1.97-.29,2.78-.87"/>
          <path class="cls-4" d="M152.13,9.55c.37-.27,.72-.58,1.02-.93,.3-.34,.57-.75,.8-1.22l1.89-3.9h-3.8l-1.17,2.14c-.18,.32-.47,.59-.9,.82-.41,.23-.83,.35-1.23,.35h-2.12v3.61h2.72c1.04,0,1.97-.29,2.78-.87"/>
          <path class="cls-1" d="M123.72,9.56c.83,.58,1.8,.87,2.86,.87h2.68v-3.6h-2.51c-.23,0-.52-.09-.86-.26-.35-.17-.6-.42-.75-.74l-1.16-2.3h-3.62l1.84,4.13c.35,.82,.85,1.45,1.52,1.92"/>
          <path class="cls-4" d="M123.72,9.56c.83,.58,1.8,.87,2.86,.87h2.68v-3.6h-2.51c-.23,0-.52-.09-.86-.26-.35-.17-.6-.42-.75-.74l-1.16-2.3h-3.62l1.84,4.13c.35,.82,.85,1.45,1.52,1.92"/>
          <polygon class="cls-1" points="99.51 32.84 112.47 32.84 112.47 28.19 99.51 28.19 99.51 14.76 95.73 14.76 95.73 48.25 88.57 48.12 88.57 25.38 84.83 25.38 84.83 48.12 78.84 48.28 78.84 52.41 115.12 52.41 115.12 48.26 99.51 48.26 99.51 32.84"/>
          <path class="cls-1" d="M114.31,19.19c-.51,0-.94-.18-1.34-.57-.4-.39-.7-.88-.87-1.46l-4.43-15.23h-21.82l-4.06,15.41c-.15,.61-.41,1.08-.78,1.39-.36,.3-.8,.46-1.31,.46h-1.39v4.54h2.06c1.28,0,2.34-.44,3.23-1.35,.38-.37,.7-.83,.95-1.35,.25-.52,.48-1.1,.68-1.76l3.43-12.67h16.36l3.81,13.05c.39,1.33,1.07,2.38,2.02,3.11,.86,.65,1.85,.98,2.96,.98h1.73v-4.54h-1.23Z"/>
          <rect class="cls-1" x="276.74" y="2.55" width="20.12" height="3.63"/>
          <rect class="cls-3" x="276.74" y="2.55" width="20.12" height="3.63"/>
          <path class="cls-1" d="M268.46,13.62c.89-.59,1.62-1.42,2.16-2.45l4.57-8.98h-3.21l-3.44,6.72c-.32,.59-.77,1.08-1.32,1.45-.56,.38-1.1,.56-1.6,.56h-1.84v3.48h1.93c.95,0,1.87-.26,2.75-.78"/>
          <path class="cls-3" d="M268.46,13.62c.89-.59,1.62-1.42,2.16-2.45l4.57-8.98h-3.21l-3.44,6.72c-.32,.59-.77,1.08-1.32,1.45-.56,.38-1.1,.56-1.6,.56h-1.84v3.48h1.93c.95,0,1.87-.26,2.75-.78"/>
          <path class="cls-1" d="M268.88,26.36c.15-.18,.3-.39,.47-.62,.15-.22,.29-.48,.41-.76l5.08-10.62h-3.25l-3.88,8.37c-.32,.72-.79,1.26-1.4,1.62-.6,.35-1.18,.53-1.72,.53h-1.04v3.58h1.93c.28,0,.57-.04,.85-.11,.29-.07,.59-.17,.88-.28l.34-.13v24.2h2.72V26.86h-1.8l.42-.5Z"/>
          <path class="cls-3" d="M268.88,26.36c.15-.18,.3-.39,.47-.62,.15-.22,.29-.48,.41-.76l5.08-10.62h-3.25l-3.88,8.37c-.32,.72-.79,1.26-1.4,1.62-.6,.35-1.18,.53-1.72,.53h-1.04v3.58h1.93c.28,0,.57-.04,.85-.11,.29-.07,.59-.17,.88-.28l.34-.13v24.2h2.72V26.86h-1.8l.42-.5Z"/>
          <path class="cls-1" d="M274.8,23.27h15.26v20.56c0,1.44-.33,2.61-.98,3.48-.69,.78-1.45,1.17-2.34,1.17h-7.86v3.63h8.35c1.73,0,3.09-.79,4.16-2.41,.41-.63,.74-1.38,.97-2.23,.23-.85,.35-1.84,.35-2.94V23.27h5.89v-3.63h-23.8v3.63Z"/>
          <path class="cls-3" d="M274.8,23.27h15.26v20.56c0,1.44-.33,2.61-.98,3.48-.69,.78-1.45,1.17-2.34,1.17h-7.86v3.63h8.35c1.73,0,3.09-.79,4.16-2.41,.41-.63,.74-1.38,.97-2.23,.23-.85,.35-1.84,.35-2.94V23.27h5.89v-3.63h-23.8v3.63Z"/>
          <path class="cls-1" d="M329.03,2.19h-2.78V19.11h-6.9V51.96h2.78v-10.18h11.29v3.21c0,1-.23,1.84-.7,2.51-.47,.69-1.03,1.04-1.64,1.04h-3.2v3.42h3.6c1.35,0,2.44-.6,3.34-1.82,.84-1.21,1.26-2.77,1.26-4.63V19.11h-7.06V2.19Zm-6.9,20.34h11.29v6.06h-11.29v-6.06Zm11.29,15.84h-11.29v-6.41h11.29v6.41Z"/>
          <path class="cls-3" d="M329.03,2.19h-2.78V19.11h-6.9V51.96h2.78v-10.18h11.29v3.21c0,1-.23,1.84-.7,2.51-.47,.69-1.03,1.04-1.64,1.04h-3.2v3.42h3.6c1.35,0,2.44-.6,3.34-1.82,.84-1.21,1.26-2.77,1.26-4.63V19.11h-7.06V2.19Zm-6.9,20.34h11.29v6.06h-11.29v-6.06Zm11.29,15.84h-11.29v-6.41h11.29v6.41Z"/>
          <path class="cls-1" d="M321.07,14.61h0c.62,.62,1.32,.92,2.12,.92h1.23v-3.37h-.63c-.16,0-.33-.07-.53-.22-.18-.13-.35-.29-.51-.48-.16-.19-.3-.41-.42-.64-.12-.24-.2-.45-.23-.64l-1.04-6.23h-2.58l1.15,7.51c.2,1.32,.69,2.38,1.44,3.15"/>
          <path class="cls-3" d="M321.07,14.61h0c.62,.62,1.32,.92,2.12,.92h1.23v-3.37h-.63c-.16,0-.33-.07-.53-.22-.18-.13-.35-.29-.51-.48-.16-.19-.3-.41-.42-.64-.12-.24-.2-.45-.23-.64l-1.04-6.23h-2.58l1.15,7.51c.2,1.32,.69,2.38,1.44,3.15"/>
          <path class="cls-1" d="M334.55,14.29h0c.61-.81,1.01-1.87,1.18-3.17l1.15-7.18h-2.65l-1.04,5.94c-.09,.55-.3,1.06-.63,1.53-.36,.5-.77,.75-1.22,.75h-.35v3.37h1.27c.92,0,1.67-.4,2.29-1.24"/>
          <path class="cls-3" d="M334.55,14.29h0c.61-.81,1.01-1.87,1.18-3.17l1.15-7.18h-2.65l-1.04,5.94c-.09,.55-.3,1.06-.63,1.53-.36,.5-.77,.75-1.22,.75h-.35v3.37h1.27c.92,0,1.67-.4,2.29-1.24"/>
          <path class="cls-1" d="M312.66,41.13l-.08,.05v3.12l.03,.17h.15c.81,0,1.49-.38,2.07-1.16,.52-.76,.82-1.75,.9-2.97l.7-9.65h-2.18l-.58,8.46c-.06,.57-.21,1.05-.45,1.42l.12,.1-.12-.1c-.17,.26-.35,.45-.55,.56"/>
          <path class="cls-3" d="M312.66,41.13l-.08,.05v3.12l.03,.17h.15c.81,0,1.49-.38,2.07-1.16,.52-.76,.82-1.75,.9-2.97l.7-9.65h-2.18l-.58,8.46c-.06,.57-.21,1.05-.45,1.42l.12,.1-.12-.1c-.17,.26-.35,.45-.55,.56"/>
          <path class="cls-1" d="M316.22,16.42h0c-.29-.42-.47-.84-.53-1.24l-1.46-12.35h-8.75l-1.93,12.59c-.06,.54-.31,.98-.72,1.32-.28,.22-.55,.35-.82,.39l-.13,.02v3.39h.35c.67,0,1.34-.29,2.02-.87,.71-.59,1.22-1.35,1.52-2.26l.06-.19h2.59v7.01h-5.61v3.37h5.61v20.88h-5.97v3.49h14.85v-3.49h-6.18V27.59h5.5v-3.37h-5.5v-7.01h2.43l.06,.18c.13,.36,.3,.72,.53,1.07,.23,.35,.49,.68,.77,.98,.3,.33,.64,.6,.98,.8,.34,.19,.66,.29,.97,.29h.87v-3.42h-.59c-.3,0-.6-.23-.92-.7m-3.24-2.51h-6.57l1.17-7.76h4.53l.87,7.76Z"/>
          <path class="cls-3" d="M316.22,16.42h0c-.29-.42-.47-.84-.53-1.24l-1.46-12.35h-8.75l-1.93,12.59c-.06,.54-.31,.98-.72,1.32-.28,.22-.55,.35-.82,.39l-.13,.02v3.39h.35c.67,0,1.34-.29,2.02-.87,.71-.59,1.22-1.35,1.52-2.26l.06-.19h2.59v7.01h-5.61v3.37h5.61v20.88h-5.97v3.49h14.85v-3.49h-6.18V27.59h5.5v-3.37h-5.5v-7.01h2.43l.06,.18c.13,.36,.3,.72,.53,1.07,.23,.35,.49,.68,.77,.98,.3,.33,.64,.6,.98,.8,.34,.19,.66,.29,.97,.29h.87v-3.42h-.59c-.3,0-.6-.23-.92-.7m-3.24-2.51h-6.57l1.17-7.76h4.53l.87,7.76Z"/>
          <path class="cls-1" d="M306.86,44.4h.15s0-3.24,0-3.24l-.1-.04c-.2-.08-.39-.22-.57-.43-.26-.31-.43-.7-.49-1.14l-.59-8.85h-2.18l.46,8.83c.08,1.52,.44,2.76,1.07,3.68,.59,.79,1.32,1.17,2.24,1.18"/>
          <path class="cls-3" d="M306.86,44.4h.15s0-3.24,0-3.24l-.1-.04c-.2-.08-.39-.22-.57-.43-.26-.31-.43-.7-.49-1.14l-.59-8.85h-2.18l.46,8.83c.08,1.52,.44,2.76,1.07,3.68,.59,.79,1.32,1.17,2.24,1.18"/>
          <path class="cls-1" d="M183.32,47.82h3.22c0-1.59,0-7.13-.04-8.64-.02-.59,.1-.9,.58-.9,.99,0,1.99,0,3.08,0l.03,9.55c.31,.03,.56,.03,.8,.03,1.85,0,3.7-.05,5.54,0,.68,.02,.87-.29,.84-1.06-.04-1.19-.02-6.39-.05-7.58-.02-.68,.15-.94,.75-.94,.86,0,2.72-.42,2.74,.4,.02,1.54-.01,5.82,.01,6.83,.01,.72,0,1.4,0,2.34,1.53-.09,3.06,.39,4.52-.32,1.34-.65,1.58-2.17,1.59-3.72,.02-3.72,0-7.44,0-11.16,0-9.51,0-19.03,0-28.54,0-2.13,.42-2.66,2.15-2.67,2.66,0,5.33-.02,7.99,.05,1.51,.04,1.89,.57,1.95,2.47,.04,1.34,.05,2.69,.05,4.03,0,12.05-.01,24.09-.01,36.14,0,.5,0,1,.04,1.5,.11,1.43,.45,1.96,1.63,2.23,.7,.16,1,.46,1.01,1.43,0,.22,0,.46,0,.69,0,2.2-.27,2.27-2.03,1.84-2.56-.61-3.84-2.19-3.91-5.38-.12-5.75-.09-11.5-.1-17.26-.02-7.28-.02-14.57-.02-21.86,0-1.82,0-1.83-1.49-1.87-1.03-.02-2.07,.03-3.1-.04-.69-.05-.91,.22-.91,1.1,.04,11.66,.05,23.32,.05,34.98,0,1.19-.02,2.38-.07,3.57-.18,4.46-2.04,6.75-5.69,6.85-2.94,.08-5.89,.02-8.83,.03-3.85,0-7.71,0-11.56,.05-.59,0-.79-.23-.78-.9,.02-1.06,0-2.12,0-3.25"/>
          <path class="cls-1" d="M194.4,25.76c2.91,0,5.83,.03,8.73-.02,.83-.01,1.08,.33,1.05,1.33-.06,1.95,0,3.91-.03,5.86-.06,3.96-2.42,6.73-5.65,6.73-4.23,0-8.45,.01-12.68,.01-1.24,0-1.21,0-1.21-1.54,.02-3.68,.03-7.36-.02-11.04-.01-1,.22-1.35,1.06-1.33,2.91,.05,5.82,.02,8.73,.02v-.03Zm-6.36,4.08v5.75c3.48,0,6.89,.01,10.29,0,1.02,0,2.05-.99,2.28-2.33,.19-1.08,.14-2.23,.19-3.41h-12.77Z"/>
          <path class="cls-1" d="M201.08,3.42h3.08c-.16,3.2,.56,6.44-.81,9.46-.9,1.99-2.3,3.05-4.13,3.06-4.64,.06-9.27,.03-13.91,0-.24,0-.67-.41-.67-.63,0-3.91,.05-7.82,.1-11.72,0-.03,.03-.06,.08-.16h3.12V11.92c1.55,0,3.01,.03,4.47-.04,.16,0,.43-.57,.43-.88,.03-2.88,.01-5.75,0-8.63V1.35c.91,0,1.8-.06,2.68,.05,.19,.02,.48,.65,.48,1,.02,2.8,.02,5.6-.05,8.4-.02,.91,.16,1.29,.92,1.19,.47-.06,.94-.06,1.41,0,1.89,.2,2.59-1.17,2.76-3.04,.14-1.48,.03-2.99,.04-4.48v-1.04Z"/>
          <path class="cls-1" d="M204.17,19.12c0,1.15,.05,2.18-.03,3.2-.03,.28-.43,.75-.66,.75-5.98,.04-11.97,.03-17.95,.04-.68,0-.93-.28-.92-1.15,.03-2.85,0-2.84,2.4-2.84,5.45-.02,10.9-.05,16.35-.06,.21,0,.43,.03,.8,.06"/>
          <path class="cls-1" d="M240.94,51.93V17.25c-.94,.21-1.8,.41-2.66,.6-3.06,.68-6.11,1.39-9.17,2-.7,.14-.87,.42-.86,1.24,.03,9.74,.02,19.49,.02,29.23,0,1.67,0,1.67-1.43,1.64-1.9-.04-1.91-.04-1.91-2.29,0-10.24,0-20.48,.03-30.72,0-2.34,.23-2.62,2.13-2.98,4.4-.84,8.8-1.67,13.19-2.55,.26-.05,.64-.55,.65-.84,.06-2.22,.05-4.45,0-6.67,0-.22-.32-.61-.5-.61-2.08-.05-4.16-.03-6.39-.03v4.93c0,1.82-.59,2.66-2.09,2.73-2.12,.08-4.24,.06-6.36,.01-.23,0-.61-.5-.64-.81-.08-1.02-.03-2.06-.03-3.26h5.69v-3.52c-1.61,0-3.17-.06-4.72,.03-.8,.05-1.01-.28-.95-1.17,.06-.83,.01-1.68,.01-2.69h35.31v3.84c-1.61,0-3.17,.05-4.72-.02-.69-.04-.93,.2-.88,1.01,.05,.8,0,1.59,0,2.49h5.61v4.04c-2.5,0-4.94,.07-7.36-.03-1.14-.05-1.54-.75-1.55-2.14-.01-1.5-.03-2.99,0-4.49,0-.67-.16-.96-.77-.95-1.86,.03-3.72,0-5.59-.05-.66-.02-.92,.22-.9,1.04,.04,2.03,.03,4.07,0,6.1-.01,.87,.45,1,.98,1.1,3.7,.7,7.41,1.4,11.11,2.1,.73,.14,1.45,.29,2.18,.43,1.54,.29,1.91,.78,1.91,2.65,0,9.09,0,18.18,0,27.28,0,1.94,0,3.89,0,5.98h-2.74c-.66,0-.55-.58-.55-1.07,.02-3.18,.05-6.36,.06-9.54,.01-4.72,.02-9.43,.02-14.14,0-2.11-.04-4.21-.01-6.32,0-.61-.14-.9-.65-1.02-3.91-.85-7.82-1.73-11.72-2.59-.15-.03-.31,.03-.58,.06v1.15c0,8.86,0,17.72,.03,26.58,0,1.95,.02,3.91,.08,5.86,.03,.82-.21,1.1-.88,1.06-.73-.05-1.47,0-2.37,0"/>
          <path class="cls-1" d="M234.8,33.22c-1.2,1.34-2.44,2.26-4.08,2.16-.61-.04-.9-.23-.89-.97,0-.42,0-.84,0-1.26,0-.74,.27-1.04,.9-.94,1.14,.18,2.01-.28,2.5-1.6,.47-1.28,.4-2.57-.42-3.51-.47-.54-1.27-.86-1.94-.91-.8-.06-1.12-.31-1.04-1.26,.03-.34,0-.69,.02-1.03,.02-.67,.28-.94,.86-.91,1.32,.08,2.54,.38,3.48,1.62,.17,.22,.39,.38,.66,.65,.99-1.48,2.22-2.27,3.83-2.17,.69,.05,1.03,.27,.94,1.13-.02,.15-.02,.31,0,.46,.16,1.09-.21,1.47-1.15,1.46-1.7,0-2.49,.95-2.57,2.89-.09,2.05,.88,3.29,2.68,3.25,.94-.03,1.15,.38,1.08,1.39-.06,.9,.12,1.76-1.08,1.72-1.51-.06-2.74-.67-3.78-2.17"/>
          <path class="cls-1" d="M250.89,25.27c1.01-1.53,2.24-2.2,3.81-2.17,1.07,.02,.94,.82,1.01,1.61,.07,.84-.05,1.33-.93,1.38-2.25,.15-3.31,2.01-2.61,4.39,.38,1.28,1.1,1.9,2.48,1.83,.96-.05,1.12,.48,1.12,1.44,0,.95-.05,1.61-1.09,1.62-1.57,.02-2.79-.72-3.83-2.17-.36,.36-.68,.65-.98,.97-.98,1.06-2.17,1.27-3.41,1.16-.19-.02-.44-.38-.51-.64-.1-.39-.07-.83-.1-1.25-.06-.87,.26-1.29,1.01-1.2,2.21,.26,2.86-2.03,2.54-4-.23-1.41-1.03-2.06-2.4-2.1-1.14-.04-1.11-.06-1.09-1.95,.01-1.11,.49-1.18,1.24-1.16,1.52,.03,2.66,.95,3.74,2.25"/>
          <path class="cls-1" d="M255.8,46.65c-.07,1.03,.11,2.19-.29,2.79-.29,.44-1.42,.4-2.06,.15-.96-.39-1.81-1.17-2.81-1.84-.78,1.04-1.91,1.89-3.38,2.01-1.21,.09-1.35,0-1.36-1.42,0-.5,0-.99,0-1.68,.49,0,.89,0,1.29,0,1.34-.02,2.21-1.11,2.33-2.89,.1-1.62-.7-2.95-1.93-3.21-.16-.03-.33-.09-.48-.06-1.08,.23-1.21-.48-1.18-1.53,.05-1.58,.01-1.59,1.33-1.52,1.49,.08,2.54,1.15,3.65,2.31,1.1-2.11,2.74-2.61,4.7-2.21,.04,.3,.09,.6,.1,.9q.09,1.89-1.49,2.06c-1.44,.16-2.32,1.49-2.28,3.35,.02,1.44,1.11,3.1,2.47,2.82,.37-.08,.77-.01,1.38-.01"/>
          <path class="cls-1" d="M234.86,47.32c-1.12,1.71-2.36,2.43-3.9,2.47-.83,.02-1.29-.23-1.17-1.36,.06-.52,0-1.06,0-1.79,.46,0,.83,0,1.19,0,1.43,0,2.4-1.17,2.48-2.97,.08-1.74-.79-2.97-2.2-3.17-.45-.06-1.21-.11-1.27-.36-.17-.7-.1-1.51-.02-2.26,.02-.18,.41-.41,.64-.43,1.68-.16,2.95,.83,4.33,2.49,.12-.3,.17-.62,.33-.85,.98-1.47,2.34-1.77,3.81-1.63,.18,.01,.39,.3,.49,.53,.09,.23,.04,.53,.05,.8q.03,1.61-1.29,1.67c-1.59,.08-2.55,1.29-2.51,3.18,.04,1.93,.96,2.97,2.62,3.02,.38,.01,1.07,.14,1.09,.3,.09,.85,.04,1.73-.03,2.6,0,.1-.45,.22-.7,.23-1.41,.06-2.67-.37-3.61-1.72-.12-.17-.18-.41-.33-.75"/>
          <rect class="cls-7" x="0" y="0" width="74.59" height="53.55"/>
          <rect class="cls-1" x="4.75" y="15.2" width="14.41" height="3.92"/>
          <polygon class="cls-1" points="9.02 7.41 19.16 7.41 19.16 3.81 4.76 3.81 4.76 4.07 4.76 8.27 4.76 12.43 9.02 12.43 9.02 7.41"/>
          <polygon class="cls-1" points="9.02 21.67 4.76 21.67 4.76 44.77 4.76 49.69 4.76 49.74 9.02 49.74 9.02 49.69 24.54 49.69 24.54 44.77 9.02 44.77 9.02 21.67"/>
          <path class="cls-1" d="M16.65,22.24h-2.99v19.81H31.06V22.24h-14.41Zm10.96,16.27h-10.5v-4.59h6.99v-3.55h-6.99s0-4.59,0-4.59h10.5v12.73Z"/>
          <polygon class="cls-1" points="49.59 3.82 40.5 3.82 40.28 3.82 40.28 3.81 23.63 3.81 23.63 4.09 23.63 8.13 23.63 12.45 27.89 12.45 27.89 7.28 35.7 7.28 35.7 12.45 40.5 12.45 40.5 7.28 49.59 7.28 49.59 16.37 53.83 16.37 53.83 3.82 51.71 3.82 49.59 3.82"/>
          <path class="cls-1" d="M49.59,21.18h-8.93v-5.94H23.14v3.92h12.72v30.55h17.95v-10.38h-8.98v3.14h4.75v4.09h-8.93v-11.31h13.16v-14.06h-4.23Zm.56,2.4v3.25h-9.49s0-3.25,0-3.25h9.49Zm-9.49,9.07v-3.26h9.49v3.26h-9.49Z"/>
          <rect class="cls-1" x="56.79" y="17.92" width="4.8" height="19.95"/>
          <polygon class="cls-1" points="65.05 3.82 65.05 44.76 58.47 44.76 58.47 49.73 65.05 49.73 65.05 49.74 69.84 49.74 69.84 3.82 65.05 3.82"/>
        </g>
      </g>
    </g>
  </g>
</svg>